<?xml version="1.0" encoding="UTF-8"?>
<svg enable-background="new 0 0 495 495" version="1.1" viewBox="0 0 495 495" xml:space="preserve" xmlns="http://www.w3.org/2000/svg">
	<polygon points="227.5 379.13 227.5 267.5 115.86 267.5 115.86 227.5 227.5 227.5 227.5 115.87 247.5 115.87 247.5 0 0 0 0 495 247.5 495 247.5 379.13" fill="#BDDBFF"/>
	<polygon points="247.5 0 247.5 115.87 267.5 115.87 267.5 227.5 379.14 227.5 379.14 267.5 267.5 267.5 267.5 379.13 247.5 379.13 247.5 495 495 495 495 0" fill="#9BC9FF"/>
	<polygon points="227.5 227.5 115.86 227.5 115.86 267.5 227.5 267.5 227.5 379.13 267.5 379.13 267.5 267.5 379.14 267.5 379.14 227.5 267.5 227.5 267.5 115.87 227.5 115.87" fill="#2488FF"/>
</svg>
