<?xml version="1.0" encoding="UTF-8"?>
<svg width="512pt" height="512pt" viewBox="0 0 512 512" xmlns="http://www.w3.org/2000/svg">
<path d="m432.28 152.13 40.961-40.961-72.434-72.395-40.957 40.957c-16.441-9.7109-34.164-17.059-52.652-21.828v-57.906h-102.4v57.906c-18.492 4.7617-36.223 12.105-52.668 21.812l-40.961-40.961-72.395 72.43 40.957 40.961c-9.7109 16.438-17.059 34.164-21.828 52.652h-57.906v102.4h57.906c4.7617 18.492 12.105 36.223 21.812 52.668l-40.961 40.961 72.414 72.414 40.961-40.961c16.445 9.707 34.176 17.051 52.668 21.812v57.906h102.4v-57.906c18.492-4.7617 36.223-12.105 52.668-21.812l40.961 40.961 72.414-72.414-40.961-40.961c9.707-16.445 17.051-34.176 21.812-52.668h57.906v-102.4h-57.906c-4.7617-18.492-12.105-36.223-21.812-52.668zm-176.28 206.27c-56.555 0-102.4-45.844-102.4-102.4s45.844-102.4 102.4-102.4 102.4 45.844 102.4 102.4-45.844 102.4-102.4 102.4z" fill="#ff9811"/>
<path d="m358.4 256c0 56.555-45.844 102.4-102.4 102.4s-102.4-45.844-102.4-102.4 45.844-102.4 102.4-102.4 102.4 45.844 102.4 102.4z" fill="#ffde55"/>
</svg>
