<?xml version="1.0" encoding="UTF-8"?>
<svg enable-background="new 0 0 280.028 280.028" version="1.1" viewBox="0 0 280.028 280.028" xml:space="preserve" xmlns="http://www.w3.org/2000/svg">
	<path d="m35.004 8.751h210.02c4.839 0 8.751 3.92 8.751 8.751v253.78c0 4.839-3.912 8.751-8.751 8.751h-210.02c-4.839 0-8.751-3.912-8.751-8.751v-253.78c1e-3 -4.831 3.912-8.751 8.751-8.751z" fill="#E37948"/>
	<path d="m52.506 35.003h175.02v218.77h-175.02v-218.77z" fill="#fff"/>
	<path d="M69.737,17.502h43.667V0h52.846l0.184,17.502h43.57v26.253H69.737V17.502z" fill="#E4E7E7"/>
	<path d="m70.008 35.073h140.01v8.733h-140.01v-8.733z" fill="#CDCFCF"/>
	<path d="m70.008 140.01h26.253v-26.34h-26.253v26.34zm43.754-26.349v26.235h96.259v-26.235h-96.259z" fill="#51BBA8"/>
	<path d="m70.008 96.347h26.253v-26.34h-26.253v26.34zm43.754-26.34v26.244h96.259v-26.244h-96.259zm-43.754 113.67h26.253v-26.069h-26.253v26.069zm43.754 0.193h96.259v-26.235h-96.259v26.235zm-43.754 43.57h26.253v-26.069h-26.253v26.069zm43.754 0.184h96.259v-26.235h-96.259v26.235z" fill="#CCD0D2"/>
</svg>
