<?xml version="1.0" encoding="UTF-8"?>
<svg style="isolation:isolate" viewBox="0 0 489 323" xmlns="http://www.w3.org/2000/svg">
<defs>
<clipPath id="a">
<rect width="489" height="323"/>
</clipPath>
</defs>
<g clip-path="url(#a)">
<path d="m0.985 167.31c1.198 2.395 3.194 4.192 5.69 4.991l62.485 21.46c1.098 0.399 2.096 0.499 3.194 0.499 4.092 0 7.985-2.595 9.382-6.688l49.01-143.04 2.495 0.898c12.677 4.492 26.851 3.694 38.929-2.196l6.089-2.994c7.286-3.494 15.77-4.093 23.357-1.398l113.99 39.328c-1.197 4.392-3.493 9.483-7.486 12.277-4.591 3.195-11.678 3.195-20.961 0l-51.106-17.467c-2.595-0.899-5.49-0.599-7.885 0.698-2.396 1.298-4.193 3.594-4.891 6.189-0.1 0.299-7.287 26.651-29.446 38.529-13.974 7.486-31.442 7.686-51.905 0.699-5.19-1.797-10.78 0.998-12.576 6.188-1.797 5.191 0.998 10.78 6.188 12.577 11.978 4.093 23.357 6.189 33.938 6.189 12.277 0 23.556-2.795 33.837-8.285 19.964-10.78 30.544-29.346 35.435-40.825l41.923 14.374c15.571 5.29 28.547 4.491 38.629-2.496 15.87-10.98 16.968-32.44 17.068-34.836 0.1-4.292-2.595-8.184-6.687-9.682l-121.78-42.022c-12.577-4.292-26.551-3.494-38.529 2.395l-6.089 2.995c-7.386 3.593-15.97 4.092-23.656 1.397l-10.082-3.593c-0.599-0.399-1.197-0.699-1.896-0.899l-62.186-21.66c-5.19-1.796-10.78 0.999-12.576 6.189l-52.404 152.72c-0.798 2.395-0.599 5.09 0.499 7.486zm67.476-144.53l43.719 14.973-45.915 134.05-43.72-14.973 45.916-134.05z" fill="#1890ff"/>
<path d="m103.9 257.84c4.891 9.982 14.673 15.771 25.053 16.17 0 4.292 0.999 8.684 2.895 12.677 3.394 6.987 9.283 12.177 16.669 14.673 3.095 1.098 6.289 1.597 9.383 1.597 4.392 0 8.684-0.998 12.677-2.995l5.19-2.595c0.399 2.995 1.298 6.089 2.695 8.984 3.394 6.987 9.283 12.177 16.669 14.673 3.095 1.098 6.289 1.597 9.383 1.597 4.392 0 8.684-0.999 12.677-2.995l113.49-55.597c25.353-12.378 48.71-28.348 69.472-47.413l25.353-23.257 57.993-28.348c4.891-2.396 6.887-8.285 4.492-13.176l-70.67-145.03c-1.198-2.396-3.194-4.193-5.689-4.991-2.496-0.899-5.191-0.699-7.586 0.499l-59.291 29.046c-4.891 2.396-6.888 8.285-4.492 13.176l67.675 138.34-20.961 19.265c-19.364 17.767-41.224 32.639-64.781 44.218l-113.49 55.598c-2.196 1.098-4.691 1.197-7.086 0.399-2.296-0.799-4.193-2.495-5.291-4.691s-1.198-4.692-0.399-7.087c0.799-2.296 2.495-4.193 4.691-5.291l63.483-31.042c4.891-2.396 6.888-8.285 4.492-13.176-2.395-4.891-8.285-6.887-13.176-4.492l-63.483 31.043-29.944 14.673c-2.196 1.098-4.692 1.198-7.087 0.399-2.296-0.798-4.193-2.495-5.291-4.691s-1.197-4.692-0.399-7.087c0.799-2.296 2.495-4.192 4.691-5.29l91.033-44.518c4.891-2.396 6.887-8.285 4.491-13.176-2.395-4.891-8.284-6.887-13.175-4.492l-102.31 50.008c-4.591 2.196-10.081 0.3-12.377-4.192-1.098-2.196-1.198-4.692-0.399-7.087 0.798-2.296 2.495-4.192 4.691-5.29l40.326-19.764 52.403-25.653c4.891-2.395 6.888-8.284 4.492-13.175s-8.285-6.888-13.176-4.492l-81.549 39.926c-4.592 2.196-10.082 0.3-12.378-4.192-2.196-4.592-0.299-10.081 4.193-12.377l43.32-21.161c4.891-2.396 6.887-8.285 4.491-13.176-2.395-4.891-8.284-6.887-13.175-4.492l-43.32 21.161c-14.374 6.987-20.363 24.455-13.276 38.829 1.996 4.092 4.791 7.386 8.185 10.081-5.989 8.085-7.386 19.564-2.495 29.446zm258.42-213.11l41.524-20.363 62.285 127.27-41.523 20.362-62.286-127.26z" fill="#d9d9d9"/>
</g>
</svg>
