<?xml version="1.0" encoding="UTF-8"?>
<svg enable-background="new 0 0 409.598 409.598" version="1.1" viewBox="0 0 409.598 409.598" xml:space="preserve" xmlns="http://www.w3.org/2000/svg">
<path d="m400.42 165.82c-20.374-71.449-67.412-102.26-111.05-89.816-11.316 3.227-21.248 9.096-29.444 17.214-4.699 4.655-10.905 7.467-17.519 7.467h-75.206c-6.615 0-12.822-2.815-17.522-7.469-8.195-8.116-18.125-13.985-29.441-17.213-43.637-12.441-90.675 18.368-111.05 89.817-20.375 71.449-6.37 156.48 37.269 168.92 32.913 9.385 73.267-25.216 99.862-73.44 2.823-5.12 8.295-8.211 14.14-8.211h88.691c5.845 0 11.317 3.091 14.14 8.211 26.594 48.223 66.948 82.825 99.861 73.44 43.637-12.443 57.642-97.474 37.268-168.92z" fill="#3A556A"/>
<circle cx="309.91" cy="133.27" r="20.48" fill="#FCD462"/>
<circle cx="309.91" cy="207.21" r="20.48" fill="#44C4A1"/>
<circle cx="346.88" cy="170.24" r="20.48" fill="#27A2DB"/>
<circle cx="273" cy="170.24" r="20.48" fill="#E56353"/>
<path d="m136.26 158.23h-30.367v-30.369c0-3.178-2.577-5.756-5.756-5.756h-25.009c-3.179 0-5.756 2.578-5.756 5.756v30.369h-30.368c-3.179 0-5.756 2.576-5.756 5.756v25.009c0 3.178 2.577 5.756 5.756 5.756h30.367v30.367c0 3.178 2.577 5.756 5.756 5.756h25.009c3.179 0 5.756-2.578 5.756-5.756v-30.367h30.367c3.179 0 5.756-2.578 5.756-5.756v-25.009c1e-3 -3.18-2.576-5.756-5.755-5.756z" fill="#EBF0F3"/>
<g fill="#E1E6E9">
	<polygon points="87.633 127.54 78.746 136.43 96.522 136.43"/>
	<polygon points="87.635 225.43 96.522 216.54 78.746 216.54"/>
	<polygon points="136.58 176.48 127.69 167.6 127.69 185.37"/>
	<polygon points="38.69 176.49 47.578 185.37 47.58 167.6"/>
</g>
<rect x="162.89" y="118.89" width="34.632" height="14.413" fill="#FCD462"/>
<rect x="212.07" y="118.89" width="34.632" height="14.413" fill="#44C4A1"/>
</svg>
