<?xml version="1.0" encoding="UTF-8"?>
<svg enable-background="new 0 0 56 56" version="1.1" viewBox="0 0 56 56" xml:space="preserve" xmlns="http://www.w3.org/2000/svg">
<circle cx="28" cy="28" r="28" fill="#E57E25"/>
<path d="m0.729 30.188c3.621-3.458 9.574-4.556 13.853-2.558-3.798 5.417-6.596 11.581-8.155 18.219 0.471 0.569 0.968 1.114 1.482 1.643 0.141-0.133 0.252-0.3 0.296-0.503 1.471-6.684 4.259-12.877 8.075-18.296 2.555 1.983 3.809 5.247 3.525 9.435l-4e-3 0.054 2e-3 0.055c0.251 6.063 3.746 11.611 9.348 14.839 1.762 1.016 3.608 1.723 5.466 2.129 1.658-0.402 3.256-0.952 4.784-1.634-3.049 0.236-6.277-0.514-9.252-2.228-4.989-2.875-8.105-7.782-8.346-13.136 0.395-6.064-2.008-9.374-4.324-11.145 1.487-1.945 3.112-3.778 4.858-5.488 7.154 6.653 13.881 13.779 20.076 21.313l4.313 5.247 1.545-1.271-4.313-5.247c-6.223-7.568-12.977-14.728-20.16-21.416 1.39-1.259 2.85-2.442 4.373-3.543 2.39 3.021 6.233 4.501 11.036 4.185 4.519 0.205 8.76 2.665 11.643 6.754 2.242 3.18 3.383 6.962 3.269 10.49 0.623-1.611 1.099-3.294 1.417-5.033-0.592-2.311-1.617-4.575-3.051-6.609-3.255-4.617-8.084-7.388-13.248-7.602l-0.055-2e-3 -0.054 4e-3c-4.07 0.274-7.294-0.911-9.295-3.34 5.142-3.417 10.935-5.93 17.155-7.3 0.203-0.045 0.365-0.161 0.498-0.302-0.528-0.512-1.072-1.008-1.639-1.477-6.19 1.454-11.965 3.99-17.109 7.407-1.946-3.908-1.265-9.4 1.667-13.169l0.407-0.523c-0.924-0.092-1.862-0.14-2.812-0.14v0.614c-2.774 4.391-3.187 10.109-0.926 14.371-1.659 1.195-3.245 2.483-4.753 3.857-3.269-2.989-6.615-5.891-10.053-8.674l-3.315-2.684c-0.492 0.457-0.966 0.931-1.424 1.422l3.481 2.818c3.369 2.727 6.649 5.569 9.855 8.497-1.829 1.798-3.531 3.726-5.085 5.772-0.114-0.058-0.23-0.118-0.339-0.169-4.743-2.221-10.981-1.29-15.251 2.176h-0.19c0 0.93 0.048 1.848 0.136 2.754l0.593-0.566z" fill="#38454F"/>
</svg>
