<?xml version="1.0" encoding="UTF-8"?>
<svg enable-background="new 0 0 512 512" version="1.1" viewBox="0 0 512 512" xml:space="preserve" xmlns="http://www.w3.org/2000/svg">
<path d="m452.14 2.239l0.011 102.88-57.585 39.84-57.566-39.86-0.05-102.88c-35.688 20.16-59.841 58.393-59.841 102.36 0 17.656 4.222 34.281 11.208 49.292l-274.94 274.96c-17.845 17.784-17.816 46.696-0.04 64.49 17.844 17.844 46.725 17.805 64.53-0.011l278.26-278.27s24.919 6.927 38.393 6.936c64.9 0.05 117.47-52.584 117.47-117.44-0.01-43.902-24.152-82.136-59.86-102.29z" fill="#A2A9AF"/>
<circle cx="45.43" cy="461.24" r="12.133" fill="#fff"/>
<polygon points="396.18 379.84 242.86 226.52 220.77 248.61 374.09 401.93 387.63 439.26 458.15 509.78 504.03 463.9 433.51 393.38" fill="#4C5870"/>
<path d="m214.38 289.3l-198.05-198.04c-19.109-19.098-19.151-50.077-0.011-69.217 19.086-19.066 50.099-19.097 69.175 0.042l198.06 198.04-69.176 69.175z" fill="#EE3840"/>
<g fill="#C21B23">
	<path d="m226.8 232.54c-4.738 4.738-12.42 4.738-17.158 0l-167.37-167.37c-4.738-4.738-4.738-12.42 0-17.158s12.42-4.738 17.158 0l167.37 167.37c4.737 4.738 4.738 12.421-1e-3 17.158z"/>
	<path d="m297.49 223.36l-79.874 79.874c-4.738 4.738-12.42 4.738-17.158 0s-4.738-12.42 0-17.158l79.874-79.874c4.738-4.738 12.42-4.738 17.158 0s4.738 12.42 0 17.158z"/>
</g>
</svg>
