<?xml version="1.0" encoding="UTF-8"?>
<svg enable-background="new 0 0 512.001 512.001" version="1.1" viewBox="0 0 512.001 512.001" xml:space="preserve" xmlns="http://www.w3.org/2000/svg">
<path d="m255.93 61.879c-90.865 0-173.47 33.042-173.47 33.042v181.73c0 66.084 43.368 96.028 90.865 132.17h165.21c47.498-36.14 90.865-66.084 90.865-132.17v-181.73s-82.604-33.042-173.47-33.042z" fill="#AA968C"/>
<g fill="#464655">
	<circle cx="165.06" cy="227.09" r="24.781"/>
	<circle cx="346.8" cy="227.09" r="24.781"/>
</g>
<path d="m280.71 466.64h-49.563c-36.497 0-66.084-29.587-66.084-66.084v-66.084h181.73v66.084c0 36.497-29.587 66.084-66.084 66.084z" fill="#AA968C"/>
<path d="m255.93 243.61c-15.573 0-30.091 7.763-38.682 20.751-21.519 32.534-60.444 93.201-60.444 106.34 0 18.156 33.042 81.7 99.126 45.389 66.084 36.311 99.126-27.234 99.126-45.389 0-13.137-38.924-73.803-60.444-106.34-8.591-12.989-23.109-20.751-38.682-20.751z" fill="#D2BEAF"/>
<path d="m297.23 339.06c0 20.276-41.302 36.714-41.302 36.714s-41.302-16.437-41.302-36.714c0-20.276 18.492-29.37 41.302-29.37s41.302 9.093 41.302 29.37z" fill="#464655"/>
<g fill="#8C7873">
	<path d="m143.05 99.072l-67.422 168.55c-3.899 9.747-17.35 10.635-22.497 1.486l-48.443-86.12c-7.802-13.87-5.726-31.195 5.133-42.829l82.931-88.855c7.687-8.237 20.856-7.866 28.068 0.789l18.257 21.909c5.828 6.993 7.352 16.617 3.973 25.069z"/>
	<path d="m368.95 99.072l67.421 168.55c3.899 9.747 17.35 10.635 22.497 1.486l48.442-86.12c7.802-13.87 5.726-31.195-5.133-42.829l-82.931-88.855c-7.687-8.237-20.856-7.866-28.068 0.789l-18.257 21.908c-5.826 6.993-7.351 16.617-3.971 25.069z"/>
</g>
</svg>
