<?xml version="1.0" encoding="UTF-8"?>
<svg enable-background="new 0 0 480 480" version="1.1" viewBox="0 0 480 480" xml:space="preserve" xmlns="http://www.w3.org/2000/svg">
	<rect x="328.42" y="25.263" width="37.895" height="37.895" fill="#695A69"/>
	<path d="m12.632 202.1v202.1h176.84v-151.58h101.05v151.58h176.84v-202.1h-454.74zm138.95 50.527v101.05h-88.421v-113.68h88.422v12.632zm176.84 88.421v-101.05h88.422v113.68h-88.422v-12.632z" fill="#F2D057"/>
	<polygon points="416.84 63.158 366.32 63.158 328.42 63.158 240 63.158 63.158 63.158 0 202.1 12.632 202.1 240 202.1 467.37 202.1 480 202.1" fill="#BF515A"/>
	<polygon points="75.789 341.05 126.32 341.05 75.789 290.53" fill="#95FFFF"/>
	<polygon points="126.32 341.05 138.95 341.05 138.95 290.53 75.789 290.53" fill="#80D7F0"/>
	<rect x="75.789" y="252.63" width="63.158" height="25.263" fill="#6EB1E2"/>
	<path d="m75.789 240h-12.631v113.68h88.422v-113.68h-75.791zm63.158 101.05h-63.158v-50.526h63.158v50.526zm0-63.158h-63.158v-25.263h63.158v25.263z" fill="#695A69"/>
	<polygon points="341.05 290.53 341.05 341.05 391.58 341.05" fill="#95FFFF"/>
	<polygon points="404.21 341.05 404.21 290.53 341.05 290.53 391.58 341.05" fill="#80D7F0"/>
	<rect x="341.05" y="252.63" width="63.158" height="25.263" fill="#6EB1E2"/>
	<path d="m404.21 353.68h12.632v-113.68h-88.422v113.68h75.79zm-63.158-101.05h63.158v25.263h-63.158v-25.263zm0 37.894h63.158v50.526h-63.158v-50.526z" fill="#695A69"/>
	<polygon points="290.53 252.63 189.47 252.63 189.47 404.21 189.47 454.74 290.53 454.74 290.53 404.21" fill="#944851"/>
	<rect x="12.632" y="404.21" width="176.84" height="50.526" fill="#E9A868"/>
	<rect x="290.53" y="404.21" width="176.84" height="50.526" fill="#E9A868"/>
</svg>
